<svg xmlns="http://www.w3.org/2000/svg" viewBox="0 0 1200 900">
  <rect width="100%" height="100%" fill="#f8f9fa" rx="20" ry="20" />
  <text x="600" y="60" font-family="Arial, sans-serif" font-size="24" font-weight="bold" text-anchor="middle" fill="#5e35b1">RuiQi WAF Core Architecture</text>
  <defs>
    <marker id="arrowhead" markerWidth="8" markerHeight="5.6" refX="7" refY="2.8" orient="auto">
      <polygon points="0 0, 8 2.8, 0 5.6" fill="#5e35b1" />
    </marker>
    <marker id="arrowhead_action" markerWidth="8" markerHeight="5.6" refX="7" refY="2.8" orient="auto">
      <polygon points="0 0, 8 2.8, 0 5.6" fill="#c62828" />
    </marker>
    <linearGradient id="haproxy-gradient" x1="0%" y1="0%" x2="0%" y2="100%">
      <stop offset="0%" stop-color="#9575cd" />
      <stop offset="100%" stop-color="#7e57c2" />
    </linearGradient>
    <linearGradient id="coraza-gradient" x1="0%" y1="0%" x2="0%" y2="100%">
      <stop offset="0%" stop-color="#7e57c2" />
      <stop offset="100%" stop-color="#673ab7" />
    </linearGradient>
    <linearGradient id="microengine-gradient" x1="0%" y1="0%" x2="0%" y2="100%">
      <stop offset="0%" stop-color="#4dd0c0" />
      <stop offset="100%" stop-color="#26a69a" />
    </linearGradient>
    <linearGradient id="geoanalysis-gradient" x1="0%" y1="0%" x2="0%" y2="100%">
      <stop offset="0%" stop-color="#4db6ac" />
      <stop offset="100%" stop-color="#00897b" />
    </linearGradient>
    <linearGradient id="ratelimit-gradient" x1="0%" y1="0%" x2="0%" y2="100%">
      <stop offset="0%" stop-color="#26a69a" />
      <stop offset="100%" stop-color="#00796b" />
    </linearGradient>
    <style>
      .label { font-family: Arial, sans-serif; font-size: 12px; text-anchor: middle; fill: #333333; }
      .title_label { font-family: Arial, sans-serif; font-size: 14px; font-weight: bold; text-anchor: middle; fill: #5e35b1; }
      .box { fill: #ffffff; stroke: #b39ddb; stroke-width: 2; rx:10; ry:10; }
      .sub_box { fill: #f3e5f5; stroke: #ce93d8; stroke-width: 1.5; rx:8; ry:8; }
      .engine_text { fill: #ffffff; font-family: Arial, sans-serif; font-size: 11px; text-anchor: middle; }
      .engine_title { fill: #ffffff; font-family: Arial, sans-serif; font-size: 13px; font-weight:bold; text-anchor: middle; }
      .arrow { stroke: #5e35b1; stroke-width: 2; marker-end: url(#arrowhead); fill: none; }
      .arrow_internal { stroke: #5e35b1; stroke-width: 1.5; marker-end: url(#arrowhead); fill: none; }
      .arrow_dashed { stroke: #5e35b1; stroke-width: 2; marker-end: url(#arrowhead); fill: none; stroke-dasharray: 5,5; }
      .arrow_action { stroke: #c62828; stroke-width: 2; marker-end: url(#arrowhead_action); fill: none; }
    </style>
  </defs>
  <g id="client">
    <rect x="40" y="400" width="120" height="60" class="box" />
    <text x="100" y="435" class="label">Client</text>
  </g>
  <g id="haproxy">
    <rect x="220" y="390" width="150" height="80" fill="url(#haproxy-gradient)" rx="10" ry="10"/>
    <text x="295" y="420" class="engine_title">HAProxy</text>
    <text x="295" y="445" class="engine_text">Load Balancer</text>
  </g>
  <g id="security_complex">
    <rect x="430" y="100" width="480" height="640" fill="#ede7f6" stroke="#d1c4e9" stroke-width="1.5" rx="15" ry="15" />
    <text x="670" y="130" class="title_label">Security Engine Complex</text>
    
    <!-- SPOE & Coraza WAF Path - Left column -->
    <text x="550" y="160" class="label" font-weight="bold">SPOE &amp; Coraza WAF Path</text>
    <rect x="460" y="180" width="170" height="50" class="sub_box"/>
    <text x="545" y="210" class="label" font-size="12px">Coraza SPOE Agent</text>
    
    <!-- Message Type Recognition - Increased vertical spacing -->
    <rect x="460" y="260" width="170" height="50" class="sub_box"/>
    <text x="545" y="280" class="label" font-size="11px">Message Type</text>
    <text x="545" y="298" class="label" font-size="11px">Recognition</text>
    
    <!-- Request/Response Handlers - Rearranged with clear spacing -->
    <rect x="440" y="340" width="80" height="50" class="sub_box"/>
    <text x="480" y="360" class="label" font-size="11px">Request</text>
    <text x="480" y="378" class="label" font-size="11px">Handler</text>
    
    <rect x="570" y="340" width="80" height="50" class="sub_box"/>
    <text x="610" y="360" class="label" font-size="11px">Response</text>
    <text x="610" y="378" class="label" font-size="11px">Handler</text>
    
    <!-- Coraza WAF - Moved down for better spacing -->
    <rect x="460" y="430" width="170" height="60" fill="url(#coraza-gradient)" rx="10" ry="10"/>
    <text x="545" y="455" class="engine_title">Coraza WAF</text>
    <text x="545" y="475" class="engine_text">Processor &amp; 5-Phases</text>
    
    <!-- Other Engines - Right column -->
    <text x="770" y="160" class="label" font-weight="bold">Other Engines</text>
    
    <!-- MicroEngine -->
    <rect x="700" y="180" width="170" height="60" fill="url(#microengine-gradient)" rx="10" ry="10"/>
    <text x="785" y="205" class="engine_title">MicroEngine</text>
    <text x="785" y="225" class="engine_text">IP/URL, Conditions</text>
    
    <!-- Geo Analysis -->
    <rect x="700" y="280" width="170" height="60" fill="url(#geoanalysis-gradient)" rx="10" ry="10"/>
    <text x="785" y="305" class="engine_title">Geo Analysis</text>
    <text x="785" y="325" class="engine_text">Location Filtering</text>
    
    <!-- Rate Limiting -->
    <rect x="700" y="380" width="170" height="60" fill="url(#ratelimit-gradient)" rx="10" ry="10"/>
    <text x="785" y="405" class="engine_title">Rate Limiting</text>
    <text x="785" y="425" class="engine_text">Traffic Control</text>
  </g>
  <g id="action">
    <rect x="540" y="760" width="260" height="60" fill="#ffcdd2" stroke="#ef9a9a" stroke-width="2" rx="10" ry="10"/>
    <text x="670" y="785" class="label" font-size="14px" font-weight="bold" fill="#c62828">Action</text>
    <text x="670" y="805" class="label" font-size="11px" fill="#c62828">(Allow / Deny / Log)</text>
  </g>
  <g id="backend_apps">
    <rect x="970" y="350" width="180" height="160" class="box"/>
    <text x="1060" y="375" class="label" font-weight="bold">Backend Apps</text>
    <rect x="990" y="395" width="140" height="30" class="sub_box" fill="#e0e0e0" stroke="#bdbdbd"/>
    <text x="1060" y="415" class="label" font-size="11px">Web Server</text>
    <rect x="990" y="435" width="140" height="30" class="sub_box" fill="#e0e0e0" stroke="#bdbdbd"/>
    <text x="1060" y="455" class="label" font-size="11px">API Server</text>
    <rect x="990" y="475" width="140" height="30" class="sub_box" fill="#e0e0e0" stroke="#bdbdbd"/>
    <text x="1060" y="495" class="label" font-size="11px">Database</text>
  </g>
  
  <!-- Connections -->
  <line x1="160" y1="430" x2="220" y2="430" class="arrow" /> 
  <line x1="370" y1="430" x2="430" y2="430" class="arrow" /> 
  <text x="400" y="420" class="label" font-size="10px">Inspect</text>
  
  <!-- SPOE & Coraza Path -->
  <line x1="545" y1="230" x2="545" y2="260" class="arrow_internal"/> 
  <line x1="545" y1="310" x2="545" y2="325" class="arrow_internal"/>
  
  <!-- Split to Request/Response Handler -->
  <polyline points="545,325 480,325" class="arrow_internal" stroke-width="1.5"/>
  <line x1="480" y1="325" x2="480" y2="340" class="arrow_internal"/> 
  
  <polyline points="545,325 610,325" class="arrow_internal" stroke-width="1.5"/>
  <line x1="610" y1="325" x2="610" y2="340" class="arrow_internal"/>
  
  <!-- Handlers to WAF -->
  <line x1="480" y1="390" x2="480" y2="410" class="arrow_internal"/>
  <polyline points="480,410 515,410 515,430" class="arrow_internal" stroke-width="1.5"/>
  
  <line x1="610" y1="390" x2="610" y2="410" class="arrow_internal"/>
  <polyline points="610,410 575,410 575,430" class="arrow_internal" stroke-width="1.5"/>
  
  <!-- Simplified result line - Coraza direct to Action -->
  <line x1="545" y1="490" x2="620" y2="760" class="arrow_internal" stroke-width="2"/> 
  <text x="570" y="625" class="label" font-size="10px" transform="rotate(-50 570 625)">Coraza Result</text>
  
  <!-- Simplified engine connections -->
  <line x1="785" y1="240" x2="785" y2="280" class="arrow_internal"/>
  <line x1="785" y1="340" x2="785" y2="380" class="arrow_internal"/>
  
  <!-- Optimized: Rate Limiting Engine result line bypassing text -->
  <path d="M 785 440 L 785 470 L 720 760" class="arrow_internal" stroke-width="2"/> 
  <text x="765" y="625" class="label" font-size="10px" transform="rotate(50 765 625)">Other Engine Results</text>
  
  <!-- Optimized: Bottom-routing forward path bypassing text -->
  <polyline points="370,430 400,430 400,510 545,510 700,510 850,510 970,430" class="arrow" stroke-width="2" fill="none" marker-end="url(#arrowhead)"/>
  
  <!-- Forward text below the line -->
  <text x="670" y="525" class="label" font-size="10px">Forward (If Allowed)</text>
  
  <!-- Optimized: Decision line from Action to HAProxy, avoiding text -->
  <path d="M 540 790 C 370 790, 250 700, 250 470" class="arrow_action" stroke-width="2.5"/> 
  <text x="350" y="700" class="label" fill="#c62828" font-size="10px">Decision</text>
  
  <!-- Response Path -->
  <path d="M 220 410 Q 200 410 200 370 L 160 370 L 160 410" class="arrow_dashed" />
  <text x="130" y="360" class="label" font-size="10px">Response/Blocked</text>
  
  <!-- Legend -->
  <g id="legend">
    <rect x="40" y="800" width="300" height="90" fill="#ffffff" stroke="#b39ddb" stroke-width="1.5" rx="10" ry="10"/>
    <text x="190" y="815" font-family="Arial, sans-serif" font-size="13" font-weight="bold" text-anchor="middle" fill="#5e35b1">Legend</text>
    <circle cx="60" cy="833" r="6" fill="url(#haproxy-gradient)" />
    <text x="100" y="837" font-family="Arial, sans-serif" font-size="11" fill="#333333" text-anchor="start">HAProxy</text>
    <circle cx="60" cy="853" r="6" fill="url(#coraza-gradient)" />
    <text x="100" y="857" font-family="Arial, sans-serif" font-size="11" fill="#333333" text-anchor="start">Coraza WAF</text>
    <circle cx="60" cy="873" r="6" fill="url(#ratelimit-gradient)" />
    <text x="100" y="877" font-family="Arial, sans-serif" font-size="11" fill="#333333" text-anchor="start">Other Engines</text>
    <rect x="180" y="826" width="15" height="15" rx="3" ry="3" class="box" fill="#ede7f6"/>
    <text x="240" y="837" font-family="Arial, sans-serif" font-size="11" fill="#333333" text-anchor="middle">Complex/System</text>
    <line x1="180" y1="853" x2="200" y2="853" class="arrow" stroke-width="1.5"/>
    <text x="240" y="857" font-family="Arial, sans-serif" font-size="11" fill="#333333" text-anchor="middle">Data Flow</text>
    <line x1="180" y1="873" x2="200" y2="873" class="arrow_action" stroke-width="1.5"/>
    <text x="240" y="877" font-family="Arial, sans-serif" font-size="11" fill="#333333" text-anchor="middle">Action/Decision</text>
  </g>
</svg>