<svg xmlns="http://www.w3.org/2000/svg" viewBox="0 0 200 200" width="200" height="200">
  <!-- Background globe shape -->
  <linearGradient id="globe-gradient" x1="0%" y1="0%" x2="100%" y2="100%">
    <stop offset="0%" stop-color="#9575cd" />
    <stop offset="100%" stop-color="#673ab7" />
  </linearGradient>
  <circle cx="100" cy="100" r="90" fill="url(#globe-gradient)" />
  
  <!-- Grid lines for the globe -->
  <path d="M40,100 a60,60 0 1,0 120,0 a60,60 0 1,0 -120,0" fill="none" stroke="rgba(255,255,255,0.3)" stroke-width="1.5" />
  <path d="M100,40 a60,60 0 1,0 0,120 a60,60 0 1,0 0,-120" fill="none" stroke="rgba(255,255,255,0.3)" stroke-width="1.5" />
  <ellipse cx="100" cy="100" rx="60" ry="25" fill="none" stroke="rgba(255,255,255,0.3)" stroke-width="1.5" />
  <line x1="40" y1="100" x2="160" y2="100" stroke="rgba(255,255,255,0.3)" stroke-width="1.5" />
  <line x1="100" y1="40" x2="100" y2="160" stroke="rgba(255,255,255,0.3)" stroke-width="1.5" />
  
  <!-- Shield symbol -->
  <linearGradient id="shield-gradient" x1="0%" y1="0%" x2="100%" y2="100%">
    <stop offset="0%" stop-color="#ffffff" />
    <stop offset="100%" stop-color="#f0f0f0" />
  </linearGradient>
  <path d="M100,60 L135,75 C135,75 130,120 100,140 C70,120 65,75 65,75 L100,60 Z" fill="url(#shield-gradient)" />
  
  <!-- Shield details -->
  <path d="M100,70 L125,80 C125,80 120,115 100,130 C80,115 75,80 75,80 L100,70 Z" fill="none" stroke="#7e57c2" stroke-width="2.5" />
  
  <!-- Lock symbol inside shield -->
  <rect x="90" y="95" width="20" height="15" rx="3" ry="3" fill="#7e57c2" />
  <circle cx="100" cy="95" r="6" fill="#7e57c2" stroke="#ffffff" stroke-width="1.5" />
  <rect x="97" y="90" width="6" height="10" fill="#7e57c2" />
</svg> 