<svg width="200" height="200" viewBox="0 0 100 100" xmlns="http://www.w3.org/2000/svg">
  <defs>
    <linearGradient id="gradDark" x1="0%" y1="0%" x2="100%" y2="100%">
      <stop offset="0%" style="stop-color:#9e72d3;stop-opacity:1" />
      <stop offset="100%" style="stop-color:#845cb3;stop-opacity:1" />
    </linearGradient>
    <linearGradient id="gradLight" x1="0%" y1="0%" x2="100%" y2="100%">
      <stop offset="0%" style="stop-color:#c5a9e8;stop-opacity:1" />
      <stop offset="100%" style="stop-color:#b899e0;stop-opacity:1" />
    </linearGradient>
    <filter id="slightBlur" x="-10%" y="-10%" width="120%" height="120%">
        <feGaussianBlur in="SourceGraphic" stdDeviation="0.5" />
    </filter>
     <filter id="innerShadow" x="-20%" y="-20%" width="140%" height="140%">
      <feOffset dx="0.5" dy="0.5"/>
      <feGaussianBlur stdDeviation="0.8" result="offset-blur"/>
      <feComposite operator="out" in="SourceGraphic" in2="offset-blur" result="inverse"/>
      <feFlood flood-color="#543e73" flood-opacity="0.5" result="color"/>
      <feComposite operator="in" in="color" in2="inverse" result="shadow"/>
      <feComposite operator="over" in="shadow" in2="SourceGraphic"/>
    </filter>
  </defs>

  <path d="M50,0 A50,50 0 0 1 50,100 A25,25 0 0 1 50,50 A25,25 0 0 0 50,0 Z" fill="url(#gradDark)" filter="url(#innerShadow)">
    <title>深色部分</title>
  </path>

  <path d="M50,0 A50,50 0 0 0 50,100 A25,25 0 0 0 50,50 A25,25 0 0 1 50,0 Z" fill="url(#gradLight)" filter="url(#innerShadow)">
    <title>浅色部分</title>
  </path>

  <circle cx="50" cy="25" r="7.5" fill="url(#gradLight)" filter="url(#slightBlur)">
    <title>深色部分中的浅色圆点</title>
  </circle>

  <circle cx="50" cy="75" r="7.5" fill="url(#gradDark)" filter="url(#slightBlur)">
    <title>浅色部分中的深色圆点</title>
  </circle>

</svg>
